# xmcd
#
# Track frame offsets:
#	150
#	6810
#	13930
#	27275
#	36363
#	44629
#	53388
#	64335
#	72977
#	79961
#	90052
#	102797
#	115723
#	122198
# Disc length: 1774 seconds
# Revision: 1
# Processed by: cddbd v1.5PL3 Copyright (c) Steve Scherf et al.
#
# Submitted via: libkcddb 0.10
#
DISCID=b106ec0e
DTITLE=Rudi Booher - Texas Fiddle Classics
DYEAR=1900
DGENRE=
TTITLE0=Dusty Miller
TTITLE1=Soppin' The Gravy
TTITLE2=Ook Pic Waltz
TTITLE3=Crafton Blues
TTITLE4=Tom and Jerry
TTITLE5=Apple Blossom
TTITLE6=Velvet's Waltz
TTITLE7=Grey Eagle
TTITLE8=Hot Springs
TTITLE9=Sally Johnson
TTITLE10=Queen Of The West
TTITLE11=Lucinda Waltz
TTITLE12=Clarinet Polka
TTITLE13=Tennessee Wagoner
EXTD=
EXTT0=
EXTT1=
EXTT2=
EXTT3=
EXTT4=
EXTT5=
EXTT6=
EXTT7=
EXTT8=
EXTT9=
EXTT10=
EXTT11=
EXTT12=
EXTT13=
PLAYORDER=
